<?xml version="1.0" encoding="UTF-8"?>
<svg width="959px" height="384px" viewBox="0 0 959 384" version="1.1" xmlns="http://www.w3.org/2000/svg" xmlns:xlink="http://www.w3.org/1999/xlink">
    <!-- Generator: Sketch 45.2 (43514) - http://www.bohemiancoding.com/sketch -->
    <title>Roofstock Logo 1024x1024 Copy</title>
    <desc>Created with Sketch.</desc>
    <defs></defs>
    <g id="Page-1" stroke="none" stroke-width="1" fill="none" fill-rule="evenodd">
        <g id="Roofstock-Logo-1024x1024-Copy">
            <g id="Page-1" transform="translate(69.000000, 70.000000)">
                <polygon id="Fill-1" fill="#F17422" points="146.160798 -0.000226851852 0.000908587258 108.888662 59.8450083 108.888662 59.8450083 244.364588 146.160798 179.686856"></polygon>
                <g id="Group-20" transform="translate(186.260388, 82.120370)" fill="#A8A3AD">
                    <path d="M101.070338,61.9548287 L101.070338,61.6871435 C101.070338,52.8875602 94.6352687,45.5307546 85.8038006,45.5307546 C76.713385,45.5307546 70.9324986,52.7605231 70.9324986,61.4194583 L70.9324986,61.6871435 C70.9324986,70.3551528 77.2585374,77.7255694 86.0627479,77.7255694 C95.1622493,77.7255694 101.070338,70.4844583 101.070338,61.9548287 M46.7345485,61.9548287 L46.7345485,61.6871435 C46.7345485,41.4542269 63.3162659,24.4993194 86.0627479,24.4993194 C108.831945,24.4993194 125.284188,41.1933472 125.284188,61.4194583 L125.284188,61.6871435 C125.284188,81.9200602 108.697928,98.8772361 85.8038006,98.8772361 C63.1822493,98.8772361 46.7345485,82.1922824 46.7345485,61.9548287" id="Fill-2"></path>
                    <path d="M185.342033,61.9548287 L185.342033,61.6871435 C185.342033,52.8875602 178.897878,45.5307546 170.080039,45.5307546 C161.003252,45.5307546 155.215551,52.7605231 155.215551,61.4194583 L155.215551,61.6871435 C155.215551,70.3551528 161.537047,77.7255694 170.350343,77.7255694 C179.422587,77.7255694 185.342033,70.4844583 185.342033,61.9548287 M131.01533,61.9548287 L131.01533,61.6871435 C131.01533,41.4542269 147.569789,24.4993194 170.350343,24.4993194 C193.112726,24.4993194 209.56497,41.1933472 209.56497,61.4194583 L209.56497,61.6871435 C209.56497,81.9200602 192.978709,98.8772361 170.080039,98.8772361 C147.451673,98.8772361 131.01533,82.1922824 131.01533,61.9548287" id="Fill-4"></path>
                    <path d="M446.850482,61.9548287 L446.850482,61.6871435 C446.850482,52.8875602 440.404055,45.5307546 431.586216,45.5307546 C422.509429,45.5307546 416.730814,52.7605231 416.730814,61.4194583 L416.730814,61.6871435 C416.730814,70.3551528 423.047767,77.7255694 431.851978,77.7255694 C440.928765,77.7255694 446.850482,70.4844583 446.850482,61.9548287 M392.523778,61.9548287 L392.523778,61.6871435 C392.523778,41.4542269 409.098681,24.4993194 431.851978,24.4993194 C454.627989,24.4993194 471.068875,41.1933472 471.068875,61.4194583 L471.068875,61.6871435 C471.068875,81.9200602 454.491701,98.8772361 431.586216,98.8772361 C408.962393,98.8772361 392.523778,82.1922824 392.523778,61.9548287" id="Fill-6"></path>
                    <path d="M477.151413,61.8284722 L477.151413,61.560787 C477.151413,41.4571759 492.685983,24.5 515.187147,24.5 C529.783601,24.5 539.519114,30.8200926 545.570305,40.2707407 L528.736454,52.8995833 C525.181607,48.2808796 521.372355,45.4066667 515.446094,45.4066667 C507.302881,45.4066667 501.369806,52.6341667 501.369806,61.2931019 L501.369806,61.560787 C501.369806,70.7550926 507.173407,77.730787 515.571025,77.730787 C521.62903,77.730787 525.447368,74.9563889 529.249806,70.3581019 L545.958726,82.4583796 C539.38964,92.1789815 529.908532,98.7531481 514.392133,98.7531481 C492.815457,98.7531481 477.151413,81.9320833 477.151413,61.8284722" id="Fill-8"></path>
                    <polygon id="Fill-10" points="633.039773 26.8050417 600.110299 26.8050417 580.010078 41.8339769 580.010078 1.81504167 555.023928 1.81504167 555.023928 97.0928194 580.010078 97.0928194 580.010078 67.7631435 583.996504 64.6461991 606.677114 97.0928194 632.776283 97.0928194 601.016615 51.3753657 633.039773 27.4787917"></polygon>
                    <polygon id="Fill-12" points="53.8099446 26.7839444 0.787063712 26.7839444 0.787063712 97.0921389 25.7550416 97.0921389 25.7732133 97.0535741 25.7732133 48.3666296 53.8099446 27.4350093"></polygon>
                    <path d="M269.733662,87.9785926 L278.803634,73.5939167 C286.976377,78.9793796 296.055435,81.4566019 303.417263,81.4566019 C307.771668,81.4566019 309.877319,79.8096574 309.877319,77.3347037 L309.877319,77.0670185 C309.877319,74.1746574 306.072609,71.9220185 298.558593,69.9325278 C284.666294,66.2507222 273.043191,60.1756296 273.043191,48.281787 L273.043191,48.03225 C273.043191,32.908037 285.116044,24.5009074 301.581917,24.5009074 C311.969341,24.5009074 321.402748,27.1233148 329.536875,31.9235 L321.643524,47.5127593 C314.586072,43.5496574 308.198704,41.5896574 301.313884,41.5896574 C297.509175,41.5896574 295.517097,43.2865093 295.517097,45.4053056 L295.517097,45.6661852 C295.517097,48.4156296 299.387679,50.4504907 306.75405,52.7031296 C320.832609,56.6390093 332.36031,62.7390556 332.36031,74.5603056 L332.36031,74.8279907 C332.36031,90.4603519 320.657706,98.62475 303.296875,98.62475 C291.310338,98.62475 279.466903,95.067713 269.733662,87.9785926" id="Fill-14"></path>
                    <path d="M247.839662,22.8736991 C247.839662,18.270875 250.329191,16.1634213 254.933457,16.1634213 L264.276006,16.1634213 L264.276006,2.21656944 C260.462211,1.05281944 255.596726,0.261106481 248.091795,0.261106481 C239.535175,0.261106481 233.754288,2.07818981 229.415784,6.44508796 C225.206753,10.6395787 223.389579,16.6851806 223.389579,24.829162 L223.389579,26.7687454 L214.303706,26.7687454 L214.303706,47.185412 L223.389579,47.185412 L223.389579,97.0928194 L248.353014,97.0928194 L248.353014,47.185412 L264.276006,47.185412 L264.276006,26.8050417 L247.839662,26.8050417 L247.839662,22.8736991 Z" id="Fill-16"></path>
                    <path d="M377.850094,77.7146806 C373.252643,77.7146806 370.751756,75.3985231 371.03569,70.6096806 L371.03569,47.1849583 L386.935967,47.1849583 L386.935967,26.7682917 L371.03569,26.7682917 L371.03569,8.62014352 L346.04954,8.62014352 L346.04954,26.7682917 L336.963668,26.7682917 L336.963668,47.1849583 L346.04954,47.1849583 L346.04954,75.4688472 C346.04954,92.1288472 354.304055,99.0001898 369.291202,99.0001898 C376.275967,99.0001898 382.193141,97.2851898 386.935967,94.8034306 L386.935967,77.7146806 L377.850094,77.7146806 Z" id="Fill-18"></path>
                </g>
            </g>
        </g>
    </g>
</svg>